# xmcd
#
# Track frame offsets:
#	150
#	18123
#	36218
#	55021
#	70594
#	88525
#	105944
#	121806
#	138414
#	156996
#	175902
#	194140
#
# Disc length: 2781 seconds
#
# Revision: 0
# Processed by: cddbd v1.5.1PL0 Copyright (c) Steve Scherf et al.
# Submitted via: audiograbber 1.83.01
#
DISCID=960adb0c
DTITLE=Cougar-Mellencamp, John - John Mellencamp - Cougar-Mellencamp, John - Jo
DTITLE=hn Mellencamp
DYEAR=1998
DGENRE=Rock
TTITLE0=Fruit Trader
TTITLE1=Your Life Is Now
TTITLE2=Positively Crazy
TTITLE3=I'm Not Running Anymore
TTITLE4=It All Comes True
TTITLE5=Eden Is Burning
TTITLE6=Where The World Began
TTITLE7=Miss Missy
TTITLE8=Chance Meeting At The Tarantula
TTITLE9=Break Me Off Some
TTITLE10=Summer Of Love
TTITLE11=Days Of Farewell
EXTD=
EXTT0=
EXTT1=
EXTT2=
EXTT3=
EXTT4=
EXTT5=
EXTT6=
EXTT7=
EXTT8=
EXTT9=
EXTT10=
EXTT11=
PLAYORDER=
